<svg width="39" height="39" viewBox="0 0 39 39" fill="none" xmlns="http://www.w3.org/2000/svg">
<path fill-rule="evenodd" clip-rule="evenodd" d="M19.0436 0.000262342C22.8163 -0.0049495 26.5059 1.10922 29.6454 3.2018C32.7848 5.29438 35.2332 8.27133 36.6805 11.756C38.1279 15.2406 38.5093 19.0764 37.7765 22.7779C37.0437 26.4794 35.2295 29.8803 32.5636 32.5503C29.8977 35.2203 26.4998 37.0395 22.7999 37.7775C19.1 38.5156 15.2644 38.1394 11.7783 36.6966C8.29222 35.2538 5.31236 32.8092 3.21578 29.6721C1.11919 26.5351 0.000101708 22.8465 9.81097e-05 19.0731C-0.00197801 16.5701 0.488987 14.0911 1.44495 11.7779C2.40092 9.46463 3.80315 7.3624 5.57157 5.59125C7.33999 3.82011 9.43995 2.41474 11.7515 1.45543C14.0631 0.496115 16.5409 0.00164553 19.0436 0.000262342ZM30.1931 12.15C29.3557 12.5191 28.4679 12.7615 27.5591 12.8692C28.5152 12.2967 29.229 11.3945 29.5662 10.3323C28.6721 10.8679 27.6917 11.244 26.6689 11.444C26.0402 10.7765 25.2255 10.3133 24.3306 10.1143C23.4356 9.91523 22.5015 9.98956 21.6492 10.3276C20.797 10.6657 20.0658 11.2519 19.5505 12.0103C19.0352 12.7688 18.7595 13.6645 18.7591 14.5815C18.7555 14.9364 18.7962 15.2904 18.8803 15.6353C17.0582 15.5422 15.2761 15.0667 13.6497 14.2398C12.0233 13.4128 10.5891 12.2529 9.44018 10.8354C8.85735 11.8453 8.67948 13.0387 8.94252 14.1747C9.20555 15.3106 9.88989 16.3043 10.8572 16.9551C10.1316 16.9313 9.42201 16.7354 8.78696 16.3834V16.4361C8.78554 17.4939 9.14978 18.5198 9.81797 19.3398C10.4862 20.1598 11.4172 20.7236 12.4534 20.9356C12.0628 21.0417 11.6597 21.0949 11.255 21.0937C10.965 21.0928 10.6757 21.0645 10.391 21.0094C10.6815 21.9204 11.2501 22.7176 12.0168 23.2889C12.7836 23.8601 13.71 24.1768 14.6659 24.1943C13.0453 25.4679 11.0429 26.1583 8.98187 26.1543C8.621 26.1561 8.26036 26.1359 7.90195 26.0937C9.99469 27.4395 12.4308 28.1538 14.9188 28.1512C23.3474 28.1512 27.9411 21.1674 27.9411 15.1163C27.9411 14.9134 27.9411 14.7185 27.9411 14.5236C28.8348 13.8742 29.6062 13.0715 30.2194 12.1526L30.1931 12.15Z" fill="white"/>
</svg>
