<svg width="19" height="39" viewBox="0 0 19 39" fill="none" xmlns="http://www.w3.org/2000/svg">
<path d="M12.7625 4.93124C11.1875 3.05624 9.81875 1.18124 9.55625 0.768738H9.5C9.2375 1.16249 7.86875 3.05624 6.29375 4.93124C-7.20625 22.1625 8.43125 33.7875 8.43125 33.7875L8.5625 33.8812C8.675 35.6625 8.975 38.25 8.975 38.25H10.1375C10.1375 38.25 10.4187 35.6812 10.5312 33.8812L10.6625 33.7687C10.6625 33.7687 26.2625 22.1625 12.7625 4.93124ZM9.5 33.525C9.17139 33.255 8.86995 32.9536 8.6 32.625L9.5 13.875L10.3437 32.625C10.0908 32.9503 9.80835 33.2516 9.5 33.525Z" fill="#CAB0DF"/>
</svg>
